<?xml version="1.0" standalone="no"?>
<!DOCTYPE svg PUBLIC "-//W3C//DTD SVG 20010904//EN"
 "http://www.w3.org/TR/2001/REC-SVG-20010904/DTD/svg10.dtd">
<svg version="1.0" xmlns="http://www.w3.org/2000/svg"
 width="512.000000pt" height="512.000000pt" viewBox="0 0 512.000000 512.000000"
 preserveAspectRatio="xMidYMid meet">
<metadata>
Created by potrace 1.11, written by Peter Selinger 2001-2013
</metadata>
<g transform="translate(0.000000,512.000000) scale(0.100000,-0.100000)"
fill="#000000" stroke="none">
<path d="M1200 4076 c-7 -9 -9 -24 -5 -37 34 -107 1338 -3484 1347 -3491 16
-10 39 -10 55 0 7 5 313 795 679 1757 497 1304 664 1753 657 1764 -9 14 -153
16 -1365 19 -1176 2 -1357 0 -1368 -12z m1816 -688 c-18 -51 -127 -355 -241
-676 -115 -320 -212 -579 -216 -575 -5 7 -246 668 -450 1236 l-38 107 489 0
490 0 -34 -92z"/>
</g>
</svg>
